<?xml version="1.0" encoding="UTF-8"?>
<svg xmlns="http://www.w3.org/2000/svg" viewBox="0 0 375 812" font-family="Manrope, system-ui, sans-serif">
  <defs>
    <linearGradient id="brand" x1="0" y1="0" x2="1" y2="1">
      <stop offset="0" stop-color="#7B61FF"/><stop offset="1" stop-color="#B388FF"/>
    </linearGradient>
    <clipPath id="phone"><rect width="375" height="812" rx="44"/></clipPath>
  </defs>
  <g clip-path="url(#phone)">
    <rect width="375" height="812" fill="#F8F7FB"/>

    <!-- Status bar -->
    <text x="32" y="34" fill="#1A1832" font-size="14" font-weight="700">9:41</text>
    <g transform="translate(310, 22)" fill="#1A1832">
      <circle cx="0" cy="8" r="2"/><circle cx="8" cy="8" r="2"/><circle cx="16" cy="8" r="2"/>
      <rect x="22" y="3" width="20" height="10" rx="2" stroke="#1A1832" stroke-width="1" fill="none"/>
      <rect x="24" y="5" width="14" height="6" fill="#1A1832"/>
    </g>

    <!-- Greeting -->
    <text x="24" y="72" fill="#6E6884" font-size="13">Oi,</text>
    <text x="24" y="94" fill="#1A1832" font-size="20" font-weight="800">Caroline 👋</text>

    <!-- Top icons -->
    <rect x="277" y="56" width="40" height="40" rx="12" fill="#FFFFFF" stroke="#E0DCEC"/>
    <text x="297" y="82" text-anchor="middle" font-size="16">🔔</text>
    <circle cx="312" cy="60" r="5" fill="#FF4D4F"/>

    <rect x="327" y="56" width="36" height="36" rx="18" fill="url(#brand)"/>
    <text x="345" y="80" text-anchor="middle" fill="#FFFFFF" font-size="13" font-weight="700">CC</text>

    <!-- Hero card -->
    <g filter="drop-shadow(0 12px 28px rgba(123,97,255,0.35))">
      <rect x="20" y="120" width="335" height="180" rx="24" fill="url(#brand)"/>
    </g>
    <circle cx="350" cy="280" r="90" fill="#FFFFFF" fill-opacity="0.08"/>

    <text x="44" y="156" fill="#FFFFFF" fill-opacity="0.85" font-size="10" font-weight="700" letter-spacing="1.5">SALDO TOTAL NOS CONTRATOS</text>
    <text x="44" y="200" fill="#FFFFFF" font-size="36" font-weight="800" letter-spacing="-1">R$ 47.890,00</text>
    <text x="44" y="222" fill="#FFFFFF" fill-opacity="0.85" font-size="12">8 contratos ativos · próxima em 4 dias</text>

    <!-- Hero actions -->
    <rect x="44" y="244" width="139" height="36" rx="12" fill="#FFFFFF" fill-opacity="0.18"/>
    <text x="113" y="266" text-anchor="middle" fill="#FFFFFF" font-size="12" font-weight="600">＋ Adicionar saldo</text>

    <rect x="191" y="244" width="140" height="36" rx="12" fill="#FFFFFF" fill-opacity="0.18"/>
    <text x="261" y="266" text-anchor="middle" fill="#FFFFFF" font-size="12" font-weight="600">✨ Novo contrato</text>

    <!-- Section: Next executions -->
    <text x="20" y="340" fill="#1A1832" font-size="14" font-weight="700">Próximas execuções</text>
    <text x="343" y="340" text-anchor="end" fill="#7B61FF" font-size="12" font-weight="600">Ver tudo</text>

    <!-- Next pay card 1 -->
    <rect x="20" y="356" width="335" height="68" rx="16" fill="#FFFFFF" filter="drop-shadow(0 1px 2px rgba(0,0,0,0.06))"/>
    <rect x="36" y="372" width="48" height="48" rx="12" fill="#E4DAFF"/>
    <text x="60" y="395" text-anchor="middle" fill="#4D33B5" font-size="16" font-weight="800">14</text>
    <text x="60" y="411" text-anchor="middle" fill="#4D33B5" font-size="9" font-weight="700">MAI</text>
    <text x="100" y="385" fill="#1A1832" font-size="14" font-weight="600">Royalties — Maio</text>
    <text x="100" y="402" fill="#6E6884" font-size="12">8 autoras · bimestral</text>
    <text x="339" y="402" text-anchor="end" fill="#1A1832" font-size="14" font-weight="700">R$ 12.450</text>

    <!-- Next pay card 2 -->
    <rect x="20" y="432" width="335" height="68" rx="16" fill="#FFFFFF" filter="drop-shadow(0 1px 2px rgba(0,0,0,0.06))"/>
    <rect x="36" y="448" width="48" height="48" rx="12" fill="#E4DAFF"/>
    <text x="60" y="471" text-anchor="middle" fill="#4D33B5" font-size="16" font-weight="800">20</text>
    <text x="60" y="487" text-anchor="middle" fill="#4D33B5" font-size="9" font-weight="700">MAI</text>
    <text x="100" y="461" fill="#1A1832" font-size="14" font-weight="600">Folha PJ — Maio</text>
    <text x="100" y="478" fill="#6E6884" font-size="12">3 colaboradores · mensal</text>
    <text x="339" y="478" text-anchor="end" fill="#1A1832" font-size="14" font-weight="700">R$ 18.300</text>

    <!-- Section: Activity -->
    <text x="20" y="540" fill="#1A1832" font-size="14" font-weight="700">Atividade recente</text>
    <text x="343" y="540" text-anchor="end" fill="#7B61FF" font-size="12" font-weight="600">Histórico</text>

    <!-- Activity card -->
    <rect x="20" y="556" width="335" height="160" rx="16" fill="#FFFFFF" filter="drop-shadow(0 1px 2px rgba(0,0,0,0.06))"/>

    <!-- Item 1 -->
    <circle cx="50" cy="586" r="18" fill="#C0F3E2"/>
    <text x="50" y="592" text-anchor="middle" fill="#00A085" font-size="16" font-weight="700">↑</text>
    <text x="80" y="582" fill="#1A1832" font-size="13" font-weight="600">Pagamento enviado · Beatriz S.</text>
    <text x="80" y="598" fill="#6E6884" font-size="11">Royalties · há 2 horas</text>
    <text x="339" y="592" text-anchor="end" fill="#00A085" font-size="13" font-weight="700">R$ 1.245</text>

    <line x1="36" y1="616" x2="339" y2="616" stroke="#EFEDF5"/>

    <!-- Item 2 -->
    <circle cx="50" cy="640" r="18" fill="#C0F3E2"/>
    <text x="50" y="646" text-anchor="middle" fill="#00A085" font-size="16" font-weight="700">↑</text>
    <text x="80" y="636" fill="#1A1832" font-size="13" font-weight="600">Pagamento enviado · Lúcia M.</text>
    <text x="80" y="652" fill="#6E6884" font-size="11">Royalties · há 2 horas</text>
    <text x="339" y="646" text-anchor="end" fill="#00A085" font-size="13" font-weight="700">R$ 982</text>

    <line x1="36" y1="670" x2="339" y2="670" stroke="#EFEDF5"/>

    <!-- Item 3 -->
    <circle cx="50" cy="694" r="18" fill="#E4DAFF"/>
    <text x="50" y="700" text-anchor="middle" fill="#4D33B5" font-size="16" font-weight="700">＋</text>
    <text x="80" y="690" fill="#1A1832" font-size="13" font-weight="600">Saldo adicionado</text>
    <text x="80" y="706" fill="#6E6884" font-size="11">Royalties · ontem</text>
    <text x="339" y="700" text-anchor="end" fill="#1A1832" font-size="13" font-weight="700">R$ 25.000</text>

    <!-- Bottom navigation -->
    <rect x="0" y="728" width="375" height="84" fill="#FFFFFF"/>
    <line x1="0" y1="728" x2="375" y2="728" stroke="#E0DCEC"/>

    <g font-size="10" font-weight="600">
      <!-- Home (active) -->
      <text x="36" y="754" text-anchor="middle" font-size="20">🏠</text>
      <text x="36" y="772" text-anchor="middle" fill="#7B61FF">Início</text>

      <!-- Contracts -->
      <text x="105" y="754" text-anchor="middle" font-size="20" opacity="0.5">📋</text>
      <text x="105" y="772" text-anchor="middle" fill="#9690AE">Contratos</text>

      <!-- CTA -->
      <g filter="drop-shadow(0 8px 24px rgba(123,97,255,0.4))">
        <rect x="160" y="734" width="56" height="52" rx="20" fill="url(#brand)"/>
        <text x="188" y="766" text-anchor="middle" fill="#FFFFFF" font-size="22">✨</text>
      </g>

      <!-- Recibos -->
      <text x="270" y="754" text-anchor="middle" font-size="20" opacity="0.5">🧾</text>
      <text x="270" y="772" text-anchor="middle" fill="#9690AE">Recibos</text>

      <!-- More -->
      <text x="339" y="754" text-anchor="middle" font-size="20" opacity="0.5">⚙</text>
      <text x="339" y="772" text-anchor="middle" fill="#9690AE">Mais</text>
    </g>

    <!-- Home indicator -->
    <rect x="125" y="796" width="125" height="5" rx="3" fill="#1A1832"/>
  </g>
</svg>
