<?xml version="1.0" encoding="UTF-8"?>
<svg xmlns="http://www.w3.org/2000/svg" viewBox="0 0 1440 900" font-family="Manrope, system-ui, sans-serif">
  <defs>
    <linearGradient id="brand" x1="0" y1="0" x2="1" y2="1">
      <stop offset="0" stop-color="#7B61FF"/><stop offset="1" stop-color="#B388FF"/>
    </linearGradient>
  </defs>

  <rect width="1440" height="900" fill="#F8F7FB"/>

  <!-- SIDEBAR -->
  <rect x="0" y="0" width="240" height="900" fill="#1A1832"/>
  <g transform="translate(24, 32)">
    <line x1="24" y1="8" x2="8" y2="40" stroke="#FFFFFF" stroke-width="2" stroke-linecap="round" opacity="0.55"/>
    <line x1="24" y1="8" x2="40" y2="40" stroke="#FFFFFF" stroke-width="2" stroke-linecap="round" opacity="0.55"/>
    <line x1="8" y1="40" x2="40" y2="40" stroke="#FFFFFF" stroke-width="2" stroke-linecap="round" opacity="0.55"/>
    <circle cx="24" cy="8" r="7" fill="#FFFFFF"/>
    <circle cx="8" cy="40" r="7" fill="#FFFFFF"/>
    <circle cx="40" cy="40" r="7" fill="#00C9A7"/>
    <text x="58" y="32" fill="#FFFFFF" font-size="18" font-weight="800" letter-spacing="-0.5">FractaPay</text>
  </g>

  <text x="24" y="124" fill="#6E6884" font-size="10" font-weight="700" letter-spacing="1.5">MENU PRINCIPAL</text>
  <g font-size="14" font-weight="500">
    <text x="32" y="166" font-size="16" fill="#9690AE">🏠</text><text x="60" y="166" fill="#C9B5FF">Início</text>
    <rect x="12" y="180" width="216" height="44" rx="10" fill="#7B61FF"/>
    <text x="32" y="208" font-size="16">📋</text><text x="60" y="208" fill="#FFFFFF" font-weight="600">Contratos</text>
    <text x="32" y="250" font-size="16" fill="#9690AE">✨</text><text x="60" y="250" fill="#C9B5FF">Chat IA</text>
    <text x="32" y="292" font-size="16" fill="#9690AE">📤</text><text x="60" y="292" fill="#C9B5FF">Upload manual</text>
    <text x="32" y="334" font-size="16" fill="#9690AE">🧾</text><text x="60" y="334" fill="#C9B5FF">Recibos</text>
    <text x="32" y="376" font-size="16" fill="#9690AE">👥</text><text x="60" y="376" fill="#C9B5FF">Destinatários</text>
  </g>

  <rect x="12" y="816" width="216" height="64" rx="12" fill="#FFFFFF" fill-opacity="0.08"/>
  <rect x="24" y="828" width="40" height="40" rx="20" fill="url(#brand)"/>
  <text x="44" y="853" text-anchor="middle" fill="#FFFFFF" font-size="14" font-weight="700">CC</text>
  <text x="72" y="843" fill="#FFFFFF" font-size="13" font-weight="600">Caroline C.</text>
  <text x="72" y="860" fill="#9690AE" font-size="11">Madame Rudini</text>

  <!-- TOP BAR with breadcrumb -->
  <rect x="240" y="0" width="1200" height="72" fill="#FFFFFF"/>
  <line x1="240" y1="72" x2="1440" y2="72" stroke="#EFEDF5"/>

  <text x="272" y="44" fill="#3F3954" font-size="22">←</text>
  <text x="304" y="44" fill="#6E6884" font-size="13">Contratos</text>
  <text x="376" y="44" fill="#9690AE" font-size="13">/</text>
  <text x="388" y="44" fill="#1A1832" font-size="13" font-weight="700">Royalties — Editora</text>

  <!-- Actions row right -->
  <rect x="1132" y="20" width="100" height="40" rx="12" fill="#FFFFFF" stroke="#E0DCEC"/>
  <text x="1182" y="44" text-anchor="middle" fill="#3F3954" font-size="13" font-weight="600">⏸ Pausar</text>

  <rect x="1240" y="20" width="80" height="40" rx="12" fill="#FFFFFF" stroke="#E0DCEC"/>
  <text x="1280" y="44" text-anchor="middle" fill="#3F3954" font-size="13" font-weight="600">✏️ Editar</text>

  <g transform="translate(1328, 20)" filter="drop-shadow(0 4px 12px rgba(123,97,255,0.3))">
    <rect width="92" height="40" rx="12" fill="url(#brand)"/>
    <text x="46" y="26" text-anchor="middle" fill="#FFFFFF" font-size="13" font-weight="600">▶ Executar</text>
  </g>

  <!-- HERO -->
  <rect x="272" y="96" width="1120" height="200" rx="20" fill="url(#brand)" filter="drop-shadow(0 12px 28px rgba(123,97,255,0.25))"/>
  <circle cx="1300" cy="280" r="160" fill="#FFFFFF" fill-opacity="0.08"/>

  <text x="304" y="138" fill="#FFFFFF" fill-opacity="0.85" font-size="11" font-weight="700" letter-spacing="1.5">CONTRATO ATIVO · DESDE 12 DE MARÇO</text>
  <text x="304" y="180" fill="#FFFFFF" font-size="32" font-weight="800" letter-spacing="-1">Royalties — Editora</text>
  <text x="304" y="206" fill="#FFFFFF" fill-opacity="0.85" font-size="15">Bimestral · 8 destinatárias · próxima execução em 4 dias</text>

  <!-- Balde -->
  <rect x="900" y="124" width="460" height="148" rx="16" fill="#FFFFFF" fill-opacity="0.15"/>
  <text x="924" y="156" fill="#FFFFFF" fill-opacity="0.85" font-size="11" font-weight="700" letter-spacing="1.5">SALDO DO CONTRATO</text>
  <text x="924" y="206" fill="#FFFFFF" font-size="40" font-weight="800" letter-spacing="-1">R$ 12.450,00</text>
  <text x="924" y="230" fill="#FFFFFF" fill-opacity="0.85" font-size="12">Suficiente para 100% da próxima distribuição</text>
  <rect x="924" y="244" width="160" height="14" rx="7" fill="#FFFFFF" fill-opacity="0.15"/>
  <rect x="924" y="244" width="160" height="14" rx="7" fill="#FFFFFF"/>

  <!-- Tabs -->
  <g transform="translate(272, 320)">
    <rect width="240" height="40" rx="10" fill="#FFFFFF" filter="drop-shadow(0 1px 2px rgba(0,0,0,0.06))"/>
    <rect x="4" y="4" width="74" height="32" rx="8" fill="#7B61FF"/>
    <text x="41" y="24" text-anchor="middle" fill="#FFFFFF" font-size="13" font-weight="600">Destinatárias</text>
    <text x="120" y="24" text-anchor="middle" fill="#6E6884" font-size="13" font-weight="600">Regras</text>
    <text x="200" y="24" text-anchor="middle" fill="#6E6884" font-size="13" font-weight="600">Histórico</text>
  </g>

  <text x="1392" y="344" text-anchor="end" fill="#7B61FF" font-size="13" font-weight="600">+ Adicionar destinatária</text>

  <!-- Recipients table -->
  <rect x="272" y="384" width="1120" height="484" rx="16" fill="#FFFFFF" filter="drop-shadow(0 4px 12px rgba(26,24,50,0.06))"/>

  <!-- Header -->
  <g font-size="11" font-weight="700" letter-spacing="1" fill="#6E6884">
    <text x="304" y="420">NOME</text>
    <text x="520" y="420">REGRA</text>
    <text x="700" y="420">CHAVE PIX</text>
    <text x="900" y="420">VALOR PRÓX. EXEC.</text>
    <text x="1080" y="420">TOTAL PAGO</text>
    <text x="1360" y="420" text-anchor="end">AÇÕES</text>
  </g>
  <line x1="288" y1="436" x2="1376" y2="436" stroke="#E0DCEC"/>

  <!-- Rows -->
  <g font-size="14">
    <g transform="translate(0, 462)">
      <rect x="304" y="-12" width="32" height="32" rx="16" fill="#E4DAFF"/>
      <text x="320" y="8" text-anchor="middle" fill="#4D33B5" font-size="11" font-weight="700">BS</text>
      <text x="346" y="0" fill="#1A1832" font-weight="600">Beatriz Souza</text>
      <text x="346" y="16" fill="#6E6884" font-size="12">Adicionada em 12/mar</text>

      <rect x="520" y="-10" width="44" height="22" rx="4" fill="#F3EFFF"/>
      <text x="542" y="6" text-anchor="middle" fill="#4D33B5" font-weight="700" font-size="11">15%</text>
      <text x="572" y="6" fill="#6E6884" font-size="12">do saldo</text>

      <text x="700" y="6" fill="#3F3954">CPF ***.456.***-21</text>
      <text x="900" y="6" fill="#1A1832" font-weight="700">R$ 1.867,50</text>
      <text x="1080" y="6" fill="#3F3954">R$ 7.420</text>
      <text x="1376" y="6" text-anchor="end" fill="#9690AE" font-size="16">⋯</text>
      <line x1="288" y1="38" x2="1376" y2="38" stroke="#EFEDF5"/>
    </g>

    <g transform="translate(0, 522)">
      <rect x="304" y="-12" width="32" height="32" rx="16" fill="#E4DAFF"/>
      <text x="320" y="8" text-anchor="middle" fill="#4D33B5" font-size="11" font-weight="700">LM</text>
      <text x="346" y="0" fill="#1A1832" font-weight="600">Lúcia Martins</text>
      <text x="346" y="16" fill="#6E6884" font-size="12">Adicionada em 12/mar</text>

      <rect x="520" y="-10" width="44" height="22" rx="4" fill="#F3EFFF"/>
      <text x="542" y="6" text-anchor="middle" fill="#4D33B5" font-weight="700" font-size="11">12%</text>

      <text x="700" y="6" fill="#3F3954">lucia@email.com</text>
      <text x="900" y="6" fill="#1A1832" font-weight="700">R$ 1.494,00</text>
      <text x="1080" y="6" fill="#3F3954">R$ 5.936</text>
      <text x="1376" y="6" text-anchor="end" fill="#9690AE" font-size="16">⋯</text>
      <line x1="288" y1="38" x2="1376" y2="38" stroke="#EFEDF5"/>
    </g>

    <g transform="translate(0, 582)">
      <rect x="304" y="-12" width="32" height="32" rx="16" fill="#E4DAFF"/>
      <text x="320" y="8" text-anchor="middle" fill="#4D33B5" font-size="11" font-weight="700">MR</text>
      <text x="346" y="0" fill="#1A1832" font-weight="600">Mariana Reis</text>
      <text x="346" y="16" fill="#6E6884" font-size="12">Adicionada em 12/mar</text>

      <rect x="520" y="-10" width="44" height="22" rx="4" fill="#F3EFFF"/>
      <text x="542" y="6" text-anchor="middle" fill="#4D33B5" font-weight="700" font-size="11">10%</text>

      <text x="700" y="6" fill="#3F3954">(11) 9****-1234</text>
      <text x="900" y="6" fill="#1A1832" font-weight="700">R$ 1.245,00</text>
      <text x="1080" y="6" fill="#3F3954">R$ 4.945</text>
      <text x="1376" y="6" text-anchor="end" fill="#9690AE" font-size="16">⋯</text>
      <line x1="288" y1="38" x2="1376" y2="38" stroke="#EFEDF5"/>
    </g>

    <g transform="translate(0, 642)">
      <rect x="304" y="-12" width="32" height="32" rx="16" fill="#E4DAFF"/>
      <text x="320" y="8" text-anchor="middle" fill="#4D33B5" font-size="11" font-weight="700">JA</text>
      <text x="346" y="0" fill="#1A1832" font-weight="600">Júlia Andrade</text>
      <text x="346" y="16" fill="#6E6884" font-size="12">Adicionada em 12/mar</text>

      <rect x="520" y="-10" width="80" height="22" rx="4" fill="#F3EFFF"/>
      <text x="560" y="6" text-anchor="middle" fill="#4D33B5" font-weight="700" font-size="11">R$ 980 fixo</text>

      <text x="700" y="6" fill="#3F3954">CPF ***.789.***-44</text>
      <text x="900" y="6" fill="#1A1832" font-weight="700">R$ 980,00</text>
      <text x="1080" y="6" fill="#3F3954">R$ 3.920</text>
      <text x="1376" y="6" text-anchor="end" fill="#9690AE" font-size="16">⋯</text>
      <line x1="288" y1="38" x2="1376" y2="38" stroke="#EFEDF5"/>
    </g>

    <g transform="translate(0, 702)">
      <rect x="304" y="-12" width="32" height="32" rx="16" fill="#E4DAFF"/>
      <text x="320" y="8" text-anchor="middle" fill="#4D33B5" font-size="11" font-weight="700">RP</text>
      <text x="346" y="0" fill="#1A1832" font-weight="600">Renata Prado</text>

      <rect x="520" y="-10" width="40" height="22" rx="4" fill="#F3EFFF"/>
      <text x="540" y="6" text-anchor="middle" fill="#4D33B5" font-weight="700" font-size="11">8%</text>

      <text x="700" y="6" fill="#3F3954">CNPJ 11.222.333/0001</text>
      <text x="900" y="6" fill="#1A1832" font-weight="700">R$ 996,00</text>
      <text x="1080" y="6" fill="#3F3954">R$ 3.957</text>
      <text x="1376" y="6" text-anchor="end" fill="#9690AE" font-size="16">⋯</text>
      <line x1="288" y1="38" x2="1376" y2="38" stroke="#EFEDF5"/>
    </g>

    <g transform="translate(0, 762)">
      <text x="346" y="0" fill="#6E6884" font-style="italic">+ 3 destinatárias adicionais</text>
      <text x="900" y="0" fill="#3F3954" font-weight="700">R$ 5.867,50</text>
      <text x="1080" y="0" fill="#7B61FF" font-weight="600">Ver todas →</text>
    </g>
  </g>

  <!-- Footer total -->
  <line x1="288" y1="820" x2="1376" y2="820" stroke="#E0DCEC"/>
  <text x="304" y="848" fill="#1A1832" font-size="14" font-weight="700">TOTAL DA PRÓXIMA EXECUÇÃO</text>
  <text x="900" y="848" fill="#1A1832" font-size="18" font-weight="800">R$ 12.450,00</text>
  <text x="1080" y="848" fill="#1A1832" font-size="14" font-weight="700">R$ 32.057,00</text>
</svg>
