<?xml version="1.0" encoding="UTF-8"?>
<svg xmlns="http://www.w3.org/2000/svg" viewBox="0 0 1440 900" font-family="Manrope, system-ui, sans-serif">
  <defs>
    <linearGradient id="brand" x1="0" y1="0" x2="1" y2="1">
      <stop offset="0" stop-color="#7B61FF"/><stop offset="1" stop-color="#B388FF"/>
    </linearGradient>
  </defs>

  <rect width="1440" height="900" fill="#F8F7FB"/>

  <!-- SIDEBAR -->
  <rect x="0" y="0" width="240" height="900" fill="#1A1832"/>
  <g transform="translate(24, 32)">
    <line x1="24" y1="8" x2="8" y2="40" stroke="#FFFFFF" stroke-width="2" stroke-linecap="round" opacity="0.55"/>
    <line x1="24" y1="8" x2="40" y2="40" stroke="#FFFFFF" stroke-width="2" stroke-linecap="round" opacity="0.55"/>
    <line x1="8" y1="40" x2="40" y2="40" stroke="#FFFFFF" stroke-width="2" stroke-linecap="round" opacity="0.55"/>
    <circle cx="24" cy="8" r="7" fill="#FFFFFF"/>
    <circle cx="8" cy="40" r="7" fill="#FFFFFF"/>
    <circle cx="40" cy="40" r="7" fill="#00C9A7"/>
    <text x="58" y="32" fill="#FFFFFF" font-size="18" font-weight="800" letter-spacing="-0.5">FractaPay</text>
  </g>

  <text x="24" y="124" fill="#6E6884" font-size="10" font-weight="700" letter-spacing="1.5">MENU PRINCIPAL</text>
  <g font-size="14" font-weight="500">
    <text x="32" y="166" font-size="16" fill="#9690AE">🏠</text><text x="60" y="166" fill="#C9B5FF">Início</text>

    <rect x="12" y="180" width="216" height="44" rx="10" fill="#7B61FF"/>
    <text x="32" y="208" font-size="16">📋</text><text x="60" y="208" fill="#FFFFFF" font-weight="600">Contratos</text>
    <rect x="200" y="194" width="22" height="20" rx="10" fill="#FFFFFF" fill-opacity="0.25"/>
    <text x="211" y="208" text-anchor="middle" fill="#FFFFFF" font-size="11" font-weight="700">8</text>

    <text x="32" y="250" font-size="16" fill="#9690AE">✨</text><text x="60" y="250" fill="#C9B5FF">Chat IA</text>
    <text x="32" y="292" font-size="16" fill="#9690AE">📤</text><text x="60" y="292" fill="#C9B5FF">Upload manual</text>
    <text x="32" y="334" font-size="16" fill="#9690AE">🧾</text><text x="60" y="334" fill="#C9B5FF">Recibos</text>
    <text x="32" y="376" font-size="16" fill="#9690AE">👥</text><text x="60" y="376" fill="#C9B5FF">Destinatários</text>
  </g>

  <rect x="12" y="816" width="216" height="64" rx="12" fill="#FFFFFF" fill-opacity="0.08"/>
  <rect x="24" y="828" width="40" height="40" rx="20" fill="url(#brand)"/>
  <text x="44" y="853" text-anchor="middle" fill="#FFFFFF" font-size="14" font-weight="700">CC</text>
  <text x="72" y="843" fill="#FFFFFF" font-size="13" font-weight="600">Caroline C.</text>
  <text x="72" y="860" fill="#9690AE" font-size="11">Madame Rudini</text>

  <!-- TOP BAR -->
  <rect x="240" y="0" width="1200" height="72" fill="#FFFFFF"/>
  <line x1="240" y1="72" x2="1440" y2="72" stroke="#EFEDF5"/>

  <text x="272" y="44" fill="#1A1832" font-size="22" font-weight="800" letter-spacing="-0.5">Contratos</text>
  <text x="382" y="44" fill="#6E6884" font-size="13">· 8 ativos · R$ 47.890 em saldo total</text>

  <!-- Search + actions -->
  <rect x="900" y="20" width="320" height="40" rx="12" fill="#F8F7FB" stroke="#E0DCEC"/>
  <text x="920" y="46" fill="#9690AE" font-size="13">🔍   Buscar contrato ou destinatário</text>

  <rect x="1232" y="20" width="100" height="40" rx="12" fill="#FFFFFF" stroke="#E0DCEC"/>
  <text x="1282" y="44" text-anchor="middle" fill="#3F3954" font-size="13" font-weight="600">📤 Upload</text>

  <g transform="translate(1340, 20)" filter="drop-shadow(0 4px 12px rgba(123,97,255,0.3))">
    <rect width="80" height="40" rx="12" fill="url(#brand)"/>
    <text x="40" y="26" text-anchor="middle" fill="#FFFFFF" font-size="13" font-weight="600">+ Novo</text>
  </g>

  <!-- Filter chips -->
  <g transform="translate(272, 108)" font-size="13" font-weight="600">
    <rect width="100" height="36" rx="18" fill="#7B61FF"/>
    <text x="50" y="22" text-anchor="middle" fill="#FFFFFF">Todos · 8</text>

    <rect x="108" width="92" height="36" rx="18" fill="#FFFFFF" stroke="#E0DCEC"/>
    <text x="154" y="22" text-anchor="middle" fill="#3F3954">Ativos · 6</text>

    <rect x="208" width="108" height="36" rx="18" fill="#FFFFFF" stroke="#E0DCEC"/>
    <text x="262" y="22" text-anchor="middle" fill="#3F3954">Pausados · 1</text>

    <rect x="324" width="120" height="36" rx="18" fill="#FFFFFF" stroke="#E0DCEC"/>
    <text x="384" y="22" text-anchor="middle" fill="#3F3954">Encerrados · 1</text>

    <text x="900" y="22" text-anchor="end" fill="#6E6884" font-size="12">Ordenar por:</text>
    <rect x="912" y="0" width="160" height="36" rx="10" fill="#FFFFFF" stroke="#E0DCEC"/>
    <text x="932" y="22" fill="#3F3954" font-size="13">Próxima execução</text>
    <text x="1056" y="22" fill="#9690AE" font-size="13">▾</text>
  </g>

  <!-- Table -->
  <rect x="272" y="164" width="1120" height="704" rx="16" fill="#FFFFFF" filter="drop-shadow(0 4px 12px rgba(26,24,50,0.06))"/>

  <!-- Header -->
  <g font-size="11" font-weight="700" letter-spacing="1" fill="#6E6884">
    <text x="304" y="200">CONTRATO</text>
    <text x="624" y="200">PERIODICIDADE</text>
    <text x="800" y="200">DESTINATÁRIOS</text>
    <text x="940" y="200">PRÓX. EXECUÇÃO</text>
    <text x="1100" y="200">SALDO</text>
    <text x="1360" y="200" text-anchor="end">AÇÕES</text>
  </g>
  <line x1="288" y1="216" x2="1376" y2="216" stroke="#E0DCEC"/>

  <!-- Rows -->
  <g font-size="14">
    <!-- Row 1 -->
    <g transform="translate(0, 240)">
      <rect x="304" y="0" width="32" height="32" rx="10" fill="#E4DAFF"/>
      <text x="320" y="22" text-anchor="middle" font-size="14">📚</text>
      <text x="346" y="14" fill="#1A1832" font-weight="700">Royalties — Editora</text>
      <text x="346" y="30" fill="#6E6884" font-size="12">8 autoras · Editora Madame Rudini</text>

      <text x="624" y="14" fill="#3F3954">Bimestral</text>
      <text x="624" y="30" fill="#6E6884" font-size="12">dia 14 dos meses pares</text>

      <text x="800" y="20" fill="#3F3954">8 pessoas</text>

      <text x="940" y="14" fill="#1A1832" font-weight="700">14 mai</text>
      <text x="940" y="30" fill="#6E6884" font-size="12">em 4 dias</text>

      <text x="1100" y="20" fill="#1A1832" font-weight="700">R$ 12.450</text>

      <rect x="1260" y="2" width="60" height="24" rx="12" fill="#C0F3E2"/>
      <text x="1290" y="18" text-anchor="middle" fill="#003D33" font-size="11" font-weight="700">● Ativo</text>
      <text x="1376" y="20" text-anchor="end" fill="#9690AE" font-size="16">⋯</text>

      <line x1="288" y1="60" x2="1376" y2="60" stroke="#EFEDF5"/>
    </g>

    <!-- Row 2 -->
    <g transform="translate(0, 320)">
      <rect x="304" y="0" width="32" height="32" rx="10" fill="#E4DAFF"/>
      <text x="320" y="22" text-anchor="middle" font-size="14">💼</text>
      <text x="346" y="14" fill="#1A1832" font-weight="700">Folha PJ — Time core</text>
      <text x="346" y="30" fill="#6E6884" font-size="12">3 colaboradores fixos</text>

      <text x="624" y="14" fill="#3F3954">Mensal</text>
      <text x="624" y="30" fill="#6E6884" font-size="12">dia 20</text>

      <text x="800" y="20" fill="#3F3954">3 pessoas</text>

      <text x="940" y="14" fill="#1A1832" font-weight="700">20 mai</text>
      <text x="940" y="30" fill="#6E6884" font-size="12">em 10 dias</text>

      <text x="1100" y="20" fill="#1A1832" font-weight="700">R$ 18.300</text>

      <rect x="1260" y="2" width="60" height="24" rx="12" fill="#C0F3E2"/>
      <text x="1290" y="18" text-anchor="middle" fill="#003D33" font-size="11" font-weight="700">● Ativo</text>
      <text x="1376" y="20" text-anchor="end" fill="#9690AE" font-size="16">⋯</text>

      <line x1="288" y1="60" x2="1376" y2="60" stroke="#EFEDF5"/>
    </g>

    <!-- Row 3 -->
    <g transform="translate(0, 400)">
      <rect x="304" y="0" width="32" height="32" rx="10" fill="#FFF1D6"/>
      <text x="320" y="22" text-anchor="middle" font-size="14">💰</text>
      <text x="346" y="14" fill="#1A1832" font-weight="700">Comissões — Vendas Q2</text>
      <text x="346" y="30" fill="#6E6884" font-size="12">5 vendedores · evento único</text>

      <text x="624" y="14" fill="#3F3954">Único</text>
      <text x="624" y="30" fill="#6E6884" font-size="12">aguardando trigger</text>

      <text x="800" y="20" fill="#3F3954">5 pessoas</text>

      <text x="940" y="20" fill="#7A5200">Pausado</text>

      <text x="1100" y="20" fill="#1A1832" font-weight="700">R$ 4.200</text>

      <rect x="1252" y="2" width="76" height="24" rx="12" fill="#FFF1D6"/>
      <text x="1290" y="18" text-anchor="middle" fill="#7A5200" font-size="11" font-weight="700">⏸ Pausado</text>
      <text x="1376" y="20" text-anchor="end" fill="#9690AE" font-size="16">⋯</text>

      <line x1="288" y1="60" x2="1376" y2="60" stroke="#EFEDF5"/>
    </g>

    <!-- Row 4 -->
    <g transform="translate(0, 480)">
      <rect x="304" y="0" width="32" height="32" rx="10" fill="#E4DAFF"/>
      <text x="320" y="22" text-anchor="middle" font-size="14">🎁</text>
      <text x="346" y="14" fill="#1A1832" font-weight="700">Bônus 13º — Time</text>
      <text x="346" y="30" fill="#6E6884" font-size="12">10 pessoas · contrato anual</text>

      <text x="624" y="14" fill="#3F3954">Anual</text>
      <text x="624" y="30" fill="#6E6884" font-size="12">dezembro</text>

      <text x="800" y="20" fill="#3F3954">10 pessoas</text>

      <text x="940" y="14" fill="#1A1832" font-weight="700">15 dez</text>
      <text x="940" y="30" fill="#6E6884" font-size="12">em 7 meses</text>

      <text x="1100" y="20" fill="#1A1832" font-weight="700">R$ 12.940</text>

      <rect x="1260" y="2" width="60" height="24" rx="12" fill="#C0F3E2"/>
      <text x="1290" y="18" text-anchor="middle" fill="#003D33" font-size="11" font-weight="700">● Ativo</text>
      <text x="1376" y="20" text-anchor="end" fill="#9690AE" font-size="16">⋯</text>

      <line x1="288" y1="60" x2="1376" y2="60" stroke="#EFEDF5"/>
    </g>

    <!-- Row 5 -->
    <g transform="translate(0, 560)">
      <rect x="304" y="0" width="32" height="32" rx="10" fill="#EFEDF5"/>
      <text x="320" y="22" text-anchor="middle" font-size="14">📦</text>
      <text x="346" y="14" fill="#6E6884" font-weight="700">Agência — Out/Nov 2025</text>
      <text x="346" y="30" fill="#6E6884" font-size="12">Encerrado em 30/nov · 2 destinatárias</text>

      <text x="624" y="20" fill="#9690AE">—</text>
      <text x="800" y="20" fill="#9690AE">2 pessoas</text>
      <text x="940" y="20" fill="#9690AE">—</text>
      <text x="1100" y="20" fill="#9690AE">R$ 0</text>

      <rect x="1252" y="2" width="76" height="24" rx="12" fill="#EFEDF5"/>
      <text x="1290" y="18" text-anchor="middle" fill="#3F3954" font-size="11" font-weight="700">■ Encerrado</text>
      <text x="1376" y="20" text-anchor="end" fill="#9690AE" font-size="16">⋯</text>
    </g>
  </g>

  <!-- Pagination -->
  <line x1="288" y1="824" x2="1376" y2="824" stroke="#EFEDF5"/>
  <text x="304" y="852" fill="#6E6884" font-size="12">Mostrando 5 de 8 contratos</text>
  <g transform="translate(1200, 836)">
    <rect width="32" height="32" rx="8" fill="#FFFFFF" stroke="#E0DCEC"/>
    <text x="16" y="22" text-anchor="middle" fill="#3F3954" font-size="13">‹</text>
    <rect x="40" width="32" height="32" rx="8" fill="#7B61FF"/>
    <text x="56" y="22" text-anchor="middle" fill="#FFFFFF" font-size="13" font-weight="700">1</text>
    <rect x="80" width="32" height="32" rx="8" fill="#FFFFFF" stroke="#E0DCEC"/>
    <text x="96" y="22" text-anchor="middle" fill="#3F3954" font-size="13">2</text>
    <rect x="120" width="32" height="32" rx="8" fill="#FFFFFF" stroke="#E0DCEC"/>
    <text x="136" y="22" text-anchor="middle" fill="#3F3954" font-size="13">›</text>
  </g>
</svg>
