<?xml version="1.0" encoding="UTF-8"?>
<svg xmlns="http://www.w3.org/2000/svg" viewBox="0 0 1440 900" font-family="Manrope, system-ui, sans-serif">
  <defs>
    <linearGradient id="brand" x1="0" y1="0" x2="1" y2="1">
      <stop offset="0" stop-color="#7B61FF"/><stop offset="1" stop-color="#B388FF"/>
    </linearGradient>
    <linearGradient id="mint" x1="0" y1="0" x2="1" y2="1">
      <stop offset="0" stop-color="#00C9A7"/><stop offset="1" stop-color="#57E5BD"/>
    </linearGradient>
  </defs>

  <rect width="1440" height="900" fill="#F8F7FB"/>

  <!-- SIDEBAR -->
  <rect x="0" y="0" width="240" height="900" fill="#1A1832"/>
  <g transform="translate(24, 32)">
    <line x1="24" y1="8" x2="8" y2="40" stroke="#FFFFFF" stroke-width="2" stroke-linecap="round" opacity="0.55"/>
    <line x1="24" y1="8" x2="40" y2="40" stroke="#FFFFFF" stroke-width="2" stroke-linecap="round" opacity="0.55"/>
    <line x1="8" y1="40" x2="40" y2="40" stroke="#FFFFFF" stroke-width="2" stroke-linecap="round" opacity="0.55"/>
    <circle cx="24" cy="8" r="7" fill="#FFFFFF"/>
    <circle cx="8" cy="40" r="7" fill="#FFFFFF"/>
    <circle cx="40" cy="40" r="7" fill="#00C9A7"/>
    <text x="58" y="32" fill="#FFFFFF" font-size="18" font-weight="800" letter-spacing="-0.5">FractaPay</text>
  </g>

  <text x="24" y="124" fill="#6E6884" font-size="10" font-weight="700" letter-spacing="1.5">MENU PRINCIPAL</text>
  <g font-size="14" font-weight="500">
    <text x="32" y="166" font-size="16" fill="#9690AE">🏠</text><text x="60" y="166" fill="#C9B5FF">Início</text>
    <text x="32" y="208" font-size="16" fill="#9690AE">📋</text><text x="60" y="208" fill="#C9B5FF">Contratos</text>
    <text x="32" y="250" font-size="16" fill="#9690AE">✨</text><text x="60" y="250" fill="#C9B5FF">Chat IA</text>
    <text x="32" y="292" font-size="16" fill="#9690AE">📤</text><text x="60" y="292" fill="#C9B5FF">Upload manual</text>
    <rect x="12" y="306" width="216" height="44" rx="10" fill="#7B61FF"/>
    <text x="32" y="334" font-size="16">🧾</text><text x="60" y="334" fill="#FFFFFF" font-weight="600">Recibos</text>
    <text x="32" y="376" font-size="16" fill="#9690AE">👥</text><text x="60" y="376" fill="#C9B5FF">Destinatários</text>
  </g>

  <rect x="12" y="816" width="216" height="64" rx="12" fill="#FFFFFF" fill-opacity="0.08"/>
  <rect x="24" y="828" width="40" height="40" rx="20" fill="url(#brand)"/>
  <text x="44" y="853" text-anchor="middle" fill="#FFFFFF" font-size="14" font-weight="700">CC</text>
  <text x="72" y="843" fill="#FFFFFF" font-size="13" font-weight="600">Caroline C.</text>
  <text x="72" y="860" fill="#9690AE" font-size="11">Madame Rudini</text>

  <!-- TOP BAR -->
  <rect x="240" y="0" width="1200" height="72" fill="#FFFFFF"/>
  <line x1="240" y1="72" x2="1440" y2="72" stroke="#EFEDF5"/>

  <text x="272" y="44" fill="#3F3954" font-size="22">←</text>
  <text x="304" y="44" fill="#6E6884" font-size="13">Recibos</text>
  <text x="362" y="44" fill="#9690AE" font-size="13">/</text>
  <text x="374" y="44" fill="#1A1832" font-size="13" font-weight="700">Pagamento para Mariana Reis</text>

  <rect x="1196" y="20" width="100" height="40" rx="12" fill="#FFFFFF" stroke="#E0DCEC"/>
  <text x="1246" y="44" text-anchor="middle" fill="#3F3954" font-size="13" font-weight="600">📤 Compartilhar</text>

  <rect x="1304" y="20" width="120" height="40" rx="12" fill="url(#brand)"/>
  <text x="1364" y="44" text-anchor="middle" fill="#FFFFFF" font-size="13" font-weight="600">⬇ Baixar PDF</text>

  <!-- MAIN: Receipt centered -->
  <!-- Receipt card -->
  <g transform="translate(412, 100)" filter="drop-shadow(0 12px 32px rgba(26,24,50,0.12))">
    <rect width="640" height="720" rx="24" fill="#FFFFFF"/>

    <!-- Mint header -->
    <path d="M 0 24 Q 0 0 24 0 L 616 0 Q 640 0 640 24 L 640 220 L 0 220 Z" fill="url(#mint)"/>
    <circle cx="580" cy="60" r="80" fill="#FFFFFF" fill-opacity="0.1"/>

    <!-- Success circle -->
    <circle cx="320" cy="80" r="44" fill="#FFFFFF" fill-opacity="0.25"/>
    <text x="320" y="93" text-anchor="middle" fill="#FFFFFF" font-size="40" font-weight="700">✓</text>

    <!-- Amount -->
    <text x="320" y="166" text-anchor="middle" fill="#FFFFFF" font-size="48" font-weight="800" letter-spacing="-1.5">R$ 1.245,00</text>
    <text x="320" y="194" text-anchor="middle" fill="#FFFFFF" fill-opacity="0.9" font-size="15">enviado para Mariana Reis</text>

    <!-- Status pill (floating over header bottom) -->
    <g transform="translate(220, 240)">
      <rect width="200" height="40" rx="20" fill="#C0F3E2"/>
      <circle cx="20" cy="20" r="5" fill="#00C9A7"/>
      <text x="36" y="26" fill="#003D33" font-size="13" font-weight="700">PIX enviado · chegou em 3 min</text>
    </g>

    <text x="320" y="312" text-anchor="middle" fill="#6E6884" font-size="13">12 de maio de 2026 às 14h32</text>

    <!-- Divider -->
    <line x1="32" y1="348" x2="608" y2="348" stroke="#EFEDF5"/>

    <!-- Info grid -->
    <g font-size="14">
      <text x="32" y="392" fill="#6E6884">Contrato</text>
      <text x="608" y="392" text-anchor="end" fill="#1A1832" font-weight="700">Royalties — Editora</text>
      <line x1="32" y1="412" x2="608" y2="412" stroke="#EFEDF5"/>

      <text x="32" y="440" fill="#6E6884">Regra aplicada</text>
      <text x="608" y="440" text-anchor="end" fill="#1A1832" font-weight="700">10% do saldo do contrato</text>
      <line x1="32" y1="460" x2="608" y2="460" stroke="#EFEDF5"/>

      <text x="32" y="488" fill="#6E6884">Chave PIX destino</text>
      <text x="608" y="488" text-anchor="end" fill="#1A1832" font-weight="700">mariana.reis@email.com</text>
      <line x1="32" y1="508" x2="608" y2="508" stroke="#EFEDF5"/>

      <text x="32" y="536" fill="#6E6884">Banco destino</text>
      <text x="608" y="536" text-anchor="end" fill="#1A1832" font-weight="700">Nubank</text>
      <line x1="32" y1="556" x2="608" y2="556" stroke="#EFEDF5"/>

      <text x="32" y="584" fill="#6E6884">Taxa FractaPay (1,5%)</text>
      <text x="608" y="584" text-anchor="end" fill="#1A1832" font-weight="700">R$ 18,68</text>
      <line x1="32" y1="604" x2="608" y2="604" stroke="#EFEDF5"/>

      <text x="32" y="632" fill="#6E6884" font-size="14" font-weight="700">VALOR LÍQUIDO RECEBIDO</text>
      <text x="608" y="632" text-anchor="end" fill="#00A085" font-size="20" font-weight="800">R$ 1.226,32</text>
    </g>

    <!-- Footer hint -->
    <rect x="32" y="664" width="576" height="40" rx="8" fill="#F8F7FB"/>
    <text x="48" y="688" fill="#6E6884" font-size="12">💡 Mariana pode verificar esse recibo de forma independente em qualquer momento.</text>
  </g>

  <!-- RIGHT: Technical details (accordion expanded) -->
  <g transform="translate(1076, 100)">
    <rect width="320" height="720" rx="16" fill="#FFFFFF" stroke="#C4BFD4" stroke-dasharray="4 4"/>

    <text x="24" y="40" fill="#6E6884" font-size="11" font-weight="700" letter-spacing="1.5">🔍 DETALHES TÉCNICOS</text>
    <text x="24" y="60" fill="#9690AE" font-size="11">Para auditoria e reconciliação</text>

    <line x1="24" y1="80" x2="296" y2="80" stroke="#E0DCEC"/>

    <g font-size="12">
      <text x="24" y="112" fill="#6E6884">ID do comprovante</text>
      <text x="24" y="134" fill="#3F3954" font-family="JetBrains Mono, monospace" font-size="11" font-weight="600">FP-2026-05-12-A7B3</text>

      <text x="24" y="174" fill="#6E6884">Registro público (Stellar)</text>
      <text x="24" y="196" fill="#3F3954" font-family="JetBrains Mono, monospace" font-size="10" font-weight="600">0x7f9c2a3b8e1d4f5a6b7c8d9e2a3b4c5d6e7f8a9b3d2a</text>

      <text x="24" y="236" fill="#6E6884">ID Mercuryo (off-ramp)</text>
      <text x="24" y="258" fill="#3F3954" font-family="JetBrains Mono, monospace" font-size="11" font-weight="600">MX-2026-A7B3-9F2C</text>

      <text x="24" y="298" fill="#6E6884">Bloco de execução</text>
      <text x="24" y="320" fill="#3F3954" font-family="JetBrains Mono, monospace" font-size="11" font-weight="600">#47291038</text>

      <text x="24" y="360" fill="#6E6884">Tempo até finalidade</text>
      <text x="24" y="382" fill="#3F3954" font-family="JetBrains Mono, monospace" font-size="11" font-weight="600">5,2s</text>

      <text x="24" y="422" fill="#6E6884">Tempo até PIX confirmado</text>
      <text x="24" y="444" fill="#3F3954" font-family="JetBrains Mono, monospace" font-size="11" font-weight="600">2m 47s</text>

      <text x="24" y="484" fill="#6E6884">Valor original (USDC)</text>
      <text x="24" y="506" fill="#3F3954" font-family="JetBrains Mono, monospace" font-size="11" font-weight="600">232.71 USDC</text>

      <text x="24" y="546" fill="#6E6884">Taxa de câmbio aplicada</text>
      <text x="24" y="568" fill="#3F3954" font-family="JetBrains Mono, monospace" font-size="11" font-weight="600">1 USDC = R$ 5.348</text>
    </g>

    <line x1="24" y1="600" x2="296" y2="600" stroke="#E0DCEC"/>

    <rect x="24" y="624" width="272" height="40" rx="10" fill="#F3EFFF"/>
    <text x="160" y="648" text-anchor="middle" fill="#7B61FF" font-size="13" font-weight="600">Abrir no explorer público →</text>

    <text x="160" y="694" text-anchor="middle" fill="#9690AE" font-size="11">Acessível por qualquer pessoa</text>
  </g>
</svg>
