<svg width="256" height="256" viewBox="0 0 256 256" fill="none" xmlns="http://www.w3.org/2000/svg">
  <g clip-path="url(#clip0_6337_6492)">
    <mask id="mask0_6337_6492" style="mask-type:luminance" maskUnits="userSpaceOnUse" x="0" y="0" width="256" height="256">
      <path d="M256 0H0V256H256V0Z" fill="white"/>
    </mask>
    <g mask="url(#mask0_6337_6492)">
      <path d="M128 256C198.693 256 256 198.693 256 128C256 57.3075 198.693 0 128 0C57.3075 0 0 57.3075 0 128C0 198.693 57.3075 256 128 256Z" fill="#0B53BF"/>
      <path d="M155.199 158.48C149.599 160.72 143.519 162 137.679 162C126.114 162 115.21 157.074 109.999 145.2H135.439L140.399 133.2H107.038C106.881 131.547 106.799 129.815 106.799 128C106.799 126.185 106.881 124.453 107.038 122.8H144.639L149.599 110.8H109.999C115.21 98.9256 126.114 94 137.679 94C143.519 94 149.599 95.28 155.199 97.52L160.319 85.36C153.439 81.76 145.679 80 137.919 80C119.19 80 100.257 90.4712 93.4031 110.8H81.1191V122.8H90.9423C90.7959 124.485 90.7191 126.218 90.7191 128C90.7191 129.782 90.7951 131.515 90.9423 133.2H81.1191V145.2H93.4031C100.257 165.529 119.19 176 137.919 176C145.679 176 153.439 174.24 160.319 170.64L155.199 158.48Z" fill="white" stroke="#0B53BF" stroke-width="0.08" stroke-miterlimit="10"/>
      <path d="M48 128.001C48 91.7608 72.08 61.2008 104.96 51.2808V34.8008C63.04 45.0408 32 82.8808 32 128.001C32 173.121 63.04 210.961 104.96 221.201V204.721C72.08 194.881 48 164.241 48 128.001Z" fill="white" stroke="#0B53BF" stroke-width="0.08" stroke-miterlimit="10"/>
      <path d="M151.039 34.8008V51.2808C183.919 61.2008 207.999 91.7608 207.999 128.001C207.999 164.241 183.919 194.801 151.039 204.721V221.201C192.959 210.961 223.999 173.121 223.999 128.001C223.999 82.8808 192.959 45.0408 151.039 34.8008Z" fill="white" stroke="#0B53BF" stroke-width="0.08" stroke-miterlimit="10"/>
    </g>
  </g>
  <defs>
    <clipPath id="clip0_6337_6492">
      <rect width="256" height="256" fill="white"/>
    </clipPath>
  </defs>
</svg>
