<?xml version="1.0" encoding="UTF-8"?>
<svg xmlns="http://www.w3.org/2000/svg" viewBox="0 0 1600 1200" font-family="Manrope, system-ui, sans-serif">
  <defs>
    <linearGradient id="bgGrad" x1="0" y1="0" x2="0" y2="1">
      <stop offset="0" stop-color="#1A1832"/>
      <stop offset="1" stop-color="#14102B"/>
    </linearGradient>
    <linearGradient id="brandGrad" x1="0" y1="0" x2="1" y2="1">
      <stop offset="0" stop-color="#7B61FF"/>
      <stop offset="1" stop-color="#B388FF"/>
    </linearGradient>
    <linearGradient id="mintGrad" x1="0" y1="0" x2="1" y2="1">
      <stop offset="0" stop-color="#00C9A7"/>
      <stop offset="1" stop-color="#57E5BD"/>
    </linearGradient>

    <!-- Arrow markers -->
    <marker id="arrowBrand" viewBox="0 0 10 10" refX="9" refY="5" markerWidth="6" markerHeight="6" orient="auto-start-reverse">
      <path d="M 0 0 L 10 5 L 0 10 z" fill="#7B61FF"/>
    </marker>
    <marker id="arrowMint" viewBox="0 0 10 10" refX="9" refY="5" markerWidth="6" markerHeight="6" orient="auto-start-reverse">
      <path d="M 0 0 L 10 5 L 0 10 z" fill="#00C9A7"/>
    </marker>
    <marker id="arrowMuted" viewBox="0 0 10 10" refX="9" refY="5" markerWidth="6" markerHeight="6" orient="auto-start-reverse">
      <path d="M 0 0 L 10 5 L 0 10 z" fill="#9690AE"/>
    </marker>

    <!-- Box shadow -->
    <filter id="shadow" x="-20%" y="-20%" width="140%" height="140%">
      <feGaussianBlur in="SourceAlpha" stdDeviation="6"/>
      <feOffset dy="4"/>
      <feComponentTransfer><feFuncA type="linear" slope="0.4"/></feComponentTransfer>
      <feMerge><feMergeNode/><feMergeNode in="SourceGraphic"/></feMerge>
    </filter>
  </defs>

  <rect width="1600" height="1200" fill="url(#bgGrad)"/>

  <!-- TITLE -->
  <text x="800" y="60" text-anchor="middle" fill="#FFFFFF" font-size="32" font-weight="800" letter-spacing="-0.5">Arquitetura Técnica · FractaPay</text>
  <text x="800" y="90" text-anchor="middle" fill="#9690AE" font-size="14" font-weight="500">4 camadas · separação on-chain/off-chain · integração externa via webhook</text>

  <!-- ============ LAYER LABELS ============ -->
  <text x="60" y="170" fill="#C9B5FF" font-size="11" font-weight="700" letter-spacing="2">CLIENTE</text>
  <text x="60" y="340" fill="#C9B5FF" font-size="11" font-weight="700" letter-spacing="2">APLICAÇÃO</text>
  <text x="60" y="640" fill="#C9B5FF" font-size="11" font-weight="700" letter-spacing="2">DADOS &amp; ON-CHAIN</text>
  <text x="60" y="920" fill="#C9B5FF" font-size="11" font-weight="700" letter-spacing="2">EXTERNO</text>

  <!-- Horizontal dividers -->
  <line x1="60" y1="290" x2="1540" y2="290" stroke="#2A2745" stroke-width="1" stroke-dasharray="4 4"/>
  <line x1="60" y1="590" x2="1540" y2="590" stroke="#2A2745" stroke-width="1" stroke-dasharray="4 4"/>
  <line x1="60" y1="870" x2="1540" y2="870" stroke="#2A2745" stroke-width="1" stroke-dasharray="4 4"/>

  <!-- ============ CAMADA 1: CLIENTE ============ -->
  <!-- Web SPA -->
  <g filter="url(#shadow)">
    <rect x="180" y="160" width="360" height="110" rx="16" fill="#FFFFFF"/>
    <text x="360" y="195" text-anchor="middle" fill="#1A1832" font-size="18" font-weight="700">Web SPA — Usuário pagador</text>
    <text x="360" y="218" text-anchor="middle" fill="#6E6884" font-size="13">React + Vite + TailwindCSS + Zustand</text>
    <rect x="200" y="232" width="100" height="22" rx="4" fill="#F3EFFF"/><text x="250" y="248" text-anchor="middle" fill="#4D33B5" font-size="11" font-weight="700">Chat IA</text>
    <rect x="310" y="232" width="100" height="22" rx="4" fill="#F3EFFF"/><text x="360" y="248" text-anchor="middle" fill="#4D33B5" font-size="11" font-weight="700">Dashboard</text>
    <rect x="420" y="232" width="100" height="22" rx="4" fill="#F3EFFF"/><text x="470" y="248" text-anchor="middle" fill="#4D33B5" font-size="11" font-weight="700">Recibos</text>
  </g>

  <!-- Auditoria pública -->
  <g filter="url(#shadow)">
    <rect x="600" y="160" width="280" height="110" rx="16" fill="#FFFFFF"/>
    <text x="740" y="195" text-anchor="middle" fill="#1A1832" font-size="16" font-weight="700">Auditoria pública</text>
    <text x="740" y="218" text-anchor="middle" fill="#6E6884" font-size="12">Acessível ao destinatário</text>
    <rect x="620" y="232" width="240" height="22" rx="4" fill="#E6FBF5"/>
    <text x="740" y="248" text-anchor="middle" fill="#003D33" font-size="11" font-weight="700">Link compartilhável → recibos verificáveis</text>
  </g>

  <!-- Mobile Wallet / Passkey -->
  <g filter="url(#shadow)">
    <rect x="940" y="160" width="320" height="110" rx="16" fill="#FFFFFF"/>
    <text x="1100" y="195" text-anchor="middle" fill="#1A1832" font-size="16" font-weight="700">Dispositivo do usuário</text>
    <text x="1100" y="218" text-anchor="middle" fill="#6E6884" font-size="12">WebAuthn passkey · sem chave exposta</text>
    <rect x="960" y="232" width="130" height="22" rx="4" fill="#DDF0FF"/><text x="1025" y="248" text-anchor="middle" fill="#0B4F8A" font-size="11" font-weight="700">🔐 Passkey local</text>
    <rect x="1100" y="232" width="140" height="22" rx="4" fill="#DDF0FF"/><text x="1170" y="248" text-anchor="middle" fill="#0B4F8A" font-size="11" font-weight="700">Biometria nativa</text>
  </g>

  <!-- Agentes IA externos (futuro) -->
  <g filter="url(#shadow)">
    <rect x="1320" y="160" width="220" height="110" rx="16" fill="#1F1153" stroke="#7B61FF" stroke-width="1" stroke-dasharray="4 4"/>
    <text x="1430" y="195" text-anchor="middle" fill="#C9B5FF" font-size="13" font-weight="700">Agentes IA externos</text>
    <text x="1430" y="215" text-anchor="middle" fill="#9690AE" font-size="11">via x402 (Fase 2)</text>
    <rect x="1340" y="232" width="180" height="22" rx="4" fill="#7B61FF" opacity="0.3"/>
    <text x="1430" y="248" text-anchor="middle" fill="#FFFFFF" font-size="11" font-weight="700">HTTP 402 → /verify /settle</text>
  </g>

  <!-- ============ CAMADA 2: APLICAÇÃO ============ -->
  <!-- Fastify Server -->
  <g filter="url(#shadow)">
    <rect x="180" y="320" width="380" height="240" rx="16" fill="#FFFFFF"/>
    <rect x="180" y="320" width="380" height="40" rx="16" fill="url(#brandGrad)"/>
    <text x="370" y="347" text-anchor="middle" fill="#FFFFFF" font-size="15" font-weight="700">server/ — Fastify + TypeScript</text>

    <rect x="200" y="380" width="160" height="36" rx="8" fill="#F3EFFF"/>
    <text x="280" y="403" text-anchor="middle" fill="#4D33B5" font-size="12" font-weight="700">Auth (passkey + OAuth)</text>

    <rect x="380" y="380" width="160" height="36" rx="8" fill="#F3EFFF"/>
    <text x="460" y="403" text-anchor="middle" fill="#4D33B5" font-size="12" font-weight="700">API REST /contracts</text>

    <rect x="200" y="426" width="160" height="36" rx="8" fill="#F3EFFF"/>
    <text x="280" y="449" text-anchor="middle" fill="#4D33B5" font-size="12" font-weight="700">Stellar SDK wrapper</text>

    <rect x="380" y="426" width="160" height="36" rx="8" fill="#F3EFFF"/>
    <text x="460" y="449" text-anchor="middle" fill="#4D33B5" font-size="12" font-weight="700">SSE /agent/stream</text>

    <rect x="200" y="472" width="160" height="36" rx="8" fill="#E6FBF5"/>
    <text x="280" y="495" text-anchor="middle" fill="#003D33" font-size="12" font-weight="700">Reconciliation worker</text>

    <rect x="380" y="472" width="160" height="36" rx="8" fill="#E6FBF5"/>
    <text x="460" y="495" text-anchor="middle" fill="#003D33" font-size="12" font-weight="700">Scheduler BullMQ</text>

    <rect x="200" y="518" width="340" height="28" rx="8" fill="#FFF1D6"/>
    <text x="370" y="537" text-anchor="middle" fill="#7A5200" font-size="11" font-weight="700">Webhook receiver · /webhooks/mercuryo · /webhooks/stellar</text>
  </g>

  <!-- IA Agent -->
  <g filter="url(#shadow)">
    <rect x="600" y="320" width="320" height="240" rx="16" fill="#FFFFFF"/>
    <rect x="600" y="320" width="320" height="40" rx="16" fill="url(#brandGrad)"/>
    <text x="760" y="347" text-anchor="middle" fill="#FFFFFF" font-size="15" font-weight="700">Camada de IA</text>

    <rect x="620" y="380" width="280" height="36" rx="8" fill="#F3EFFF"/>
    <text x="760" y="403" text-anchor="middle" fill="#4D33B5" font-size="12" font-weight="700">Anthropic Claude · tool use</text>

    <rect x="620" y="426" width="280" height="36" rx="8" fill="#F3EFFF"/>
    <text x="760" y="449" text-anchor="middle" fill="#4D33B5" font-size="12" font-weight="700">Parser CSV / XLSX / PDF / OCR</text>

    <rect x="620" y="472" width="280" height="36" rx="8" fill="#FFE3E3"/>
    <text x="760" y="495" text-anchor="middle" fill="#7A0E10" font-size="12" font-weight="700">⚠ Guard rail: confirmação humana</text>

    <text x="760" y="540" text-anchor="middle" fill="#6E6884" font-size="11" font-style="italic">Modelo trocável via env (Claude/Gemini/open-weight)</text>
  </g>

  <!-- AWS Infra -->
  <g filter="url(#shadow)">
    <rect x="960" y="320" width="580" height="240" rx="16" fill="#FFFFFF"/>
    <rect x="960" y="320" width="580" height="40" rx="16" fill="#1A1832"/>
    <text x="1250" y="347" text-anchor="middle" fill="#FFFFFF" font-size="15" font-weight="700">AWS — Infraestrutura gerenciada</text>

    <rect x="980" y="380" width="170" height="68" rx="8" fill="#EFEDF5"/>
    <text x="1065" y="404" text-anchor="middle" fill="#1A1832" font-size="13" font-weight="700">ECS Fargate</text>
    <text x="1065" y="423" text-anchor="middle" fill="#6E6884" font-size="11">server/ containerizado</text>
    <text x="1065" y="438" text-anchor="middle" fill="#6E6884" font-size="11">+ ALB com HTTPS</text>

    <rect x="1170" y="380" width="170" height="68" rx="8" fill="#EFEDF5"/>
    <text x="1255" y="404" text-anchor="middle" fill="#1A1832" font-size="13" font-weight="700">S3 + CloudFront</text>
    <text x="1255" y="423" text-anchor="middle" fill="#6E6884" font-size="11">web/ estático</text>
    <text x="1255" y="438" text-anchor="middle" fill="#6E6884" font-size="11">SPA fallback</text>

    <rect x="1360" y="380" width="160" height="68" rx="8" fill="#EFEDF5"/>
    <text x="1440" y="404" text-anchor="middle" fill="#1A1832" font-size="13" font-weight="700">Secrets Manager</text>
    <text x="1440" y="423" text-anchor="middle" fill="#6E6884" font-size="11">+ KMS</text>
    <text x="1440" y="438" text-anchor="middle" fill="#6E6884" font-size="11">rotação habilitada</text>

    <rect x="980" y="460" width="170" height="68" rx="8" fill="#EFEDF5"/>
    <text x="1065" y="484" text-anchor="middle" fill="#1A1832" font-size="13" font-weight="700">CloudWatch</text>
    <text x="1065" y="503" text-anchor="middle" fill="#6E6884" font-size="11">logs + métricas</text>
    <text x="1065" y="518" text-anchor="middle" fill="#6E6884" font-size="11">+ alarms</text>

    <rect x="1170" y="460" width="170" height="68" rx="8" fill="#EFEDF5"/>
    <text x="1255" y="484" text-anchor="middle" fill="#1A1832" font-size="13" font-weight="700">SQS / Redis</text>
    <text x="1255" y="503" text-anchor="middle" fill="#6E6884" font-size="11">BullMQ jobs</text>
    <text x="1255" y="518" text-anchor="middle" fill="#6E6884" font-size="11">+ DLQ</text>

    <rect x="1360" y="460" width="160" height="68" rx="8" fill="#EFEDF5"/>
    <text x="1440" y="484" text-anchor="middle" fill="#1A1832" font-size="13" font-weight="700">Textract</text>
    <text x="1440" y="503" text-anchor="middle" fill="#6E6884" font-size="11">OCR de relatórios</text>
    <text x="1440" y="518" text-anchor="middle" fill="#6E6884" font-size="11">em imagem</text>
  </g>

  <!-- ============ CAMADA 3: DADOS & ON-CHAIN ============ -->
  <!-- MariaDB -->
  <g filter="url(#shadow)">
    <rect x="180" y="620" width="380" height="220" rx="16" fill="#FFFFFF"/>
    <rect x="180" y="620" width="380" height="40" rx="16" fill="#1A1832"/>
    <text x="370" y="647" text-anchor="middle" fill="#FFFFFF" font-size="15" font-weight="700">MariaDB (RDS) — Off-chain</text>

    <text x="200" y="688" fill="#6E6884" font-size="11" font-weight="700" letter-spacing="1">DADOS PRIVADOS / PII</text>

    <rect x="200" y="700" width="160" height="32" rx="6" fill="#F8F7FB"/>
    <text x="210" y="720" fill="#1A1832" font-size="12" font-weight="600">users</text>

    <rect x="380" y="700" width="160" height="32" rx="6" fill="#F8F7FB"/>
    <text x="390" y="720" fill="#1A1832" font-size="12" font-weight="600">organizations</text>

    <rect x="200" y="742" width="160" height="32" rx="6" fill="#F8F7FB"/>
    <text x="210" y="762" fill="#1A1832" font-size="12" font-weight="600">recipients · PII 🔒</text>

    <rect x="380" y="742" width="160" height="32" rx="6" fill="#F8F7FB"/>
    <text x="390" y="762" fill="#1A1832" font-size="12" font-weight="600">contracts (metadata)</text>

    <rect x="200" y="784" width="160" height="32" rx="6" fill="#F8F7FB"/>
    <text x="210" y="804" fill="#1A1832" font-size="12" font-weight="600">conversations</text>

    <rect x="380" y="784" width="160" height="32" rx="6" fill="#F8F7FB"/>
    <text x="390" y="804" fill="#1A1832" font-size="12" font-weight="600">executions (mirror)</text>
  </g>

  <!-- Soroban Smart Contracts -->
  <g filter="url(#shadow)">
    <rect x="600" y="620" width="540" height="220" rx="16" fill="#FFFFFF"/>
    <rect x="600" y="620" width="540" height="40" rx="16" fill="url(#brandGrad)"/>
    <text x="870" y="647" text-anchor="middle" fill="#FFFFFF" font-size="15" font-weight="700">Soroban Contracts — On-chain (Stellar)</text>

    <text x="620" y="688" fill="#6E6884" font-size="11" font-weight="700" letter-spacing="1">PUBLICAMENTE VERIFICÁVEL</text>

    <rect x="620" y="700" width="240" height="50" rx="8" fill="#F3EFFF"/>
    <text x="630" y="720" fill="#1A1832" font-size="13" font-weight="700">PaymentContract (por regra)</text>
    <text x="630" y="738" fill="#6E6884" font-size="11">estado · regras · cronograma · execuções</text>

    <rect x="880" y="700" width="240" height="50" rx="8" fill="#E6FBF5"/>
    <text x="890" y="720" fill="#1A1832" font-size="13" font-weight="700">Balde (sub-contrato)</text>
    <text x="890" y="738" fill="#6E6884" font-size="11">custódia USDC isolada por contrato</text>

    <rect x="620" y="760" width="500" height="32" rx="6" fill="#F8F7FB"/>
    <text x="630" y="780" fill="#1A1832" font-size="11" font-weight="600">batch_pay · execute · pause · resume · end · add_recipient · update_rule</text>

    <rect x="620" y="800" width="500" height="32" rx="6" fill="#FFF1D6"/>
    <text x="630" y="820" fill="#7A5200" font-size="11" font-weight="600">⚡ events: execution_started · transfer_executed · fee_collected · state_changed</text>
  </g>

  <!-- Stellar Network -->
  <g filter="url(#shadow)">
    <rect x="1180" y="620" width="360" height="220" rx="16" fill="#FFFFFF"/>
    <rect x="1180" y="620" width="360" height="40" rx="16" fill="url(#brandGrad)"/>
    <text x="1360" y="647" text-anchor="middle" fill="#FFFFFF" font-size="15" font-weight="700">Stellar Network</text>

    <rect x="1200" y="680" width="320" height="50" rx="8" fill="#F3EFFF"/>
    <text x="1210" y="700" fill="#1A1832" font-size="13" font-weight="700">USDC (nativo Stellar)</text>
    <text x="1210" y="718" fill="#6E6884" font-size="11">Emitido pela Circle · stablecoin USD</text>

    <rect x="1200" y="740" width="320" height="44" rx="8" fill="#F8F7FB"/>
    <text x="1210" y="760" fill="#1A1832" font-size="13" font-weight="700">Horizon API</text>
    <text x="1210" y="775" fill="#6E6884" font-size="11">submit · stream events · readBalance</text>

    <rect x="1200" y="794" width="320" height="32" rx="8" fill="#E6FBF5"/>
    <text x="1210" y="813" fill="#003D33" font-size="11" font-weight="600">Custo &lt; USD 0,01/tx · finalidade ~5s</text>
  </g>

  <!-- ============ CAMADA 4: EXTERNO ============ -->
  <!-- Mercuryo -->
  <g filter="url(#shadow)">
    <rect x="180" y="900" width="380" height="160" rx="16" fill="#FFFFFF"/>
    <rect x="180" y="900" width="380" height="40" rx="16" fill="url(#mintGrad)"/>
    <text x="370" y="927" text-anchor="middle" fill="#FFFFFF" font-size="15" font-weight="700">Mercuryo — Off-ramp PIX</text>

    <text x="370" y="970" text-anchor="middle" fill="#1A1832" font-size="13" font-weight="600">Converte USDC → BRL e envia via PIX</text>

    <rect x="200" y="985" width="170" height="32" rx="6" fill="#E6FBF5"/>
    <text x="285" y="1004" text-anchor="middle" fill="#003D33" font-size="11" font-weight="700">POST /payouts</text>

    <rect x="380" y="985" width="170" height="32" rx="6" fill="#FFF1D6"/>
    <text x="465" y="1004" text-anchor="middle" fill="#7A5200" font-size="11" font-weight="700">Webhook ↩ status</text>

    <text x="370" y="1042" text-anchor="middle" fill="#6E6884" font-size="11" font-style="italic">Roadmap: provedor secundário (Transfero) p/ redundância</text>
  </g>

  <!-- OAuth -->
  <g filter="url(#shadow)">
    <rect x="600" y="900" width="280" height="160" rx="16" fill="#FFFFFF"/>
    <rect x="600" y="900" width="280" height="40" rx="16" fill="#1A1832"/>
    <text x="740" y="927" text-anchor="middle" fill="#FFFFFF" font-size="15" font-weight="700">OAuth Providers</text>

    <rect x="620" y="960" width="240" height="32" rx="6" fill="#F8F7FB"/>
    <text x="740" y="980" text-anchor="middle" fill="#1A1832" font-size="12" font-weight="600">Google · Apple · Microsoft</text>

    <text x="740" y="1014" text-anchor="middle" fill="#6E6884" font-size="11">Login social opcional</text>
    <text x="740" y="1032" text-anchor="middle" fill="#6E6884" font-size="11">+ associado ao smart wallet</text>
  </g>

  <!-- x402 Facilitator -->
  <g filter="url(#shadow)">
    <rect x="920" y="900" width="280" height="160" rx="16" fill="#1F1153" stroke="#7B61FF" stroke-width="1" stroke-dasharray="4 4"/>
    <rect x="920" y="900" width="280" height="40" rx="16" fill="url(#brandGrad)" opacity="0.7"/>
    <text x="1060" y="927" text-anchor="middle" fill="#FFFFFF" font-size="15" font-weight="700">x402 Facilitator</text>

    <text x="1060" y="970" text-anchor="middle" fill="#C9B5FF" font-size="12" font-weight="600">OpenZeppelin · Built on Stellar</text>

    <rect x="940" y="985" width="240" height="32" rx="6" fill="#7B61FF" opacity="0.2"/>
    <text x="1060" y="1005" text-anchor="middle" fill="#C9B5FF" font-size="11" font-weight="700">/verify /settle /supported</text>

    <text x="1060" y="1042" text-anchor="middle" fill="#9690AE" font-size="11" font-style="italic">Fase 2 · pagamentos agênticos</text>
  </g>

  <!-- Email / SMS -->
  <g filter="url(#shadow)">
    <rect x="1240" y="900" width="300" height="160" rx="16" fill="#FFFFFF"/>
    <rect x="1240" y="900" width="300" height="40" rx="16" fill="#1A1832"/>
    <text x="1390" y="927" text-anchor="middle" fill="#FFFFFF" font-size="15" font-weight="700">Notificações</text>

    <rect x="1260" y="960" width="120" height="32" rx="6" fill="#F8F7FB"/>
    <text x="1320" y="980" text-anchor="middle" fill="#1A1832" font-size="12" font-weight="600">SES (email)</text>

    <rect x="1400" y="960" width="120" height="32" rx="6" fill="#F8F7FB"/>
    <text x="1460" y="980" text-anchor="middle" fill="#1A1832" font-size="12" font-weight="600">SNS (push)</text>

    <text x="1390" y="1014" text-anchor="middle" fill="#6E6884" font-size="11">Notificações para usuário</text>
    <text x="1390" y="1032" text-anchor="middle" fill="#6E6884" font-size="11">e destinatário (opcional)</text>
  </g>

  <!-- ============ CONNECTIONS ============ -->
  <!-- SPA → Server -->
  <path d="M 360 270 L 360 320" stroke="#7B61FF" stroke-width="2" fill="none" marker-end="url(#arrowBrand)"/>
  <text x="370" y="298" fill="#C9B5FF" font-size="11" font-weight="600">HTTPS + JWT</text>

  <!-- Public audit ← Soroban events -->
  <path d="M 740 270 Q 740 600 870 620" stroke="#00C9A7" stroke-width="2" fill="none" marker-end="url(#arrowMint)" stroke-dasharray="6 4"/>
  <text x="750" y="500" fill="#57E5BD" font-size="10" font-weight="600">leitura direta</text>
  <text x="750" y="515" fill="#57E5BD" font-size="10" font-weight="600">Horizon API</text>

  <!-- Passkey → Server (WebAuthn) -->
  <path d="M 1100 270 L 540 380" stroke="#7B61FF" stroke-width="2" fill="none" marker-end="url(#arrowBrand)" stroke-dasharray="6 4"/>
  <text x="900" y="320" fill="#C9B5FF" font-size="11" font-weight="600">WebAuthn assertion</text>

  <!-- Server → IA -->
  <path d="M 560 440 L 600 440" stroke="#7B61FF" stroke-width="2" fill="none" marker-end="url(#arrowBrand)"/>
  <text x="570" y="430" fill="#C9B5FF" font-size="10" font-weight="600">tool use</text>

  <!-- IA → Server (response) -->
  <path d="M 600 460 L 560 460" stroke="#9690AE" stroke-width="1.5" fill="none" marker-end="url(#arrowMuted)"/>

  <!-- Server → MariaDB -->
  <path d="M 360 560 L 360 620" stroke="#7B61FF" stroke-width="2" fill="none" marker-end="url(#arrowBrand)"/>
  <text x="370" y="595" fill="#C9B5FF" font-size="11" font-weight="600">Prisma · TLS</text>

  <!-- Server → Soroban -->
  <path d="M 540 560 Q 600 580 700 620" stroke="#7B61FF" stroke-width="2" fill="none" marker-end="url(#arrowBrand)"/>
  <text x="550" y="600" fill="#C9B5FF" font-size="10" font-weight="600">SDK · submit tx</text>

  <!-- Soroban → Stellar -->
  <path d="M 1140 730 L 1180 730" stroke="#7B61FF" stroke-width="2" fill="none" marker-end="url(#arrowBrand)"/>

  <!-- Soroban events → Server (reconciliation) -->
  <path d="M 870 840 Q 800 870 540 560" stroke="#00C9A7" stroke-width="2" fill="none" marker-end="url(#arrowMint)" stroke-dasharray="6 4"/>
  <text x="600" y="855" fill="#57E5BD" font-size="11" font-weight="600">events stream</text>

  <!-- Soroban → Mercuryo (USDC transfer) -->
  <path d="M 700 840 Q 600 870 400 900" stroke="#00C9A7" stroke-width="2" fill="none" marker-end="url(#arrowMint)"/>
  <text x="440" y="892" fill="#57E5BD" font-size="11" font-weight="600">USDC transfer</text>

  <!-- Mercuryo webhook → Server -->
  <path d="M 460 900 Q 460 720 540 540" stroke="#FFB020" stroke-width="2" fill="none" marker-end="url(#arrowMuted)" stroke-dasharray="4 4"/>
  <text x="450" y="730" fill="#FFB020" font-size="11" font-weight="600">webhook ↩</text>

  <!-- OAuth → Server -->
  <path d="M 740 900 Q 700 800 540 400" stroke="#9690AE" stroke-width="1.5" fill="none" marker-end="url(#arrowMuted)" stroke-dasharray="4 4"/>

  <!-- Server → SES/SNS -->
  <path d="M 540 540 Q 900 700 1320 900" stroke="#9690AE" stroke-width="1.5" fill="none" marker-end="url(#arrowMuted)" stroke-dasharray="4 4"/>

  <!-- x402 Agents → x402 facilitator → Server (future) -->
  <path d="M 1430 270 Q 1430 600 1060 900" stroke="#7B61FF" stroke-width="1.5" fill="none" marker-end="url(#arrowBrand)" stroke-dasharray="6 4" opacity="0.6"/>

  <!-- ============ FLUXO DE EXECUÇÃO ============ -->
  <rect x="60" y="1100" width="1480" height="80" rx="12" fill="#1F1153" stroke="#7B61FF" stroke-width="1"/>
  <text x="80" y="1128" fill="#C9B5FF" font-size="12" font-weight="700" letter-spacing="1">FLUXO DE EXECUÇÃO DE UM PAGAMENTO</text>

  <g font-size="11" fill="#FFFFFF" font-weight="600">
    <circle cx="100" cy="1156" r="14" fill="#7B61FF"/><text x="100" y="1161" text-anchor="middle">1</text>
    <text x="125" y="1161" fill="#E0DCEC">Scheduler dispara → contrato Soroban valida cronograma</text>

    <circle cx="500" cy="1156" r="14" fill="#7B61FF"/><text x="500" y="1161" text-anchor="middle">2</text>
    <text x="525" y="1161" fill="#E0DCEC">Contrato debita 1,5% taxa + calcula splits</text>

    <circle cx="830" cy="1156" r="14" fill="#7B61FF"/><text x="830" y="1161" text-anchor="middle">3</text>
    <text x="855" y="1161" fill="#E0DCEC">Transferências USDC → endereços Mercuryo</text>

    <circle cx="1170" cy="1156" r="14" fill="#00C9A7"/><text x="1170" y="1161" text-anchor="middle">4</text>
    <text x="1195" y="1161" fill="#E0DCEC">Mercuryo converte USDC→BRL → PIX</text>
  </g>

  <!-- LEGEND -->
  <g transform="translate(60, 100)" font-size="11">
    <rect x="1280" y="0" width="200" height="50" rx="8" fill="rgba(255,255,255,0.05)" stroke="#3F3954" stroke-width="1"/>
    <line x1="1295" y1="18" x2="1325" y2="18" stroke="#7B61FF" stroke-width="2" marker-end="url(#arrowBrand)"/>
    <text x="1335" y="22" fill="#E0DCEC">Síncrono</text>
    <line x1="1295" y1="38" x2="1325" y2="38" stroke="#00C9A7" stroke-width="2" stroke-dasharray="4 3" marker-end="url(#arrowMint)"/>
    <text x="1335" y="42" fill="#E0DCEC">Assíncrono / evento</text>
  </g>

</svg>
